<?xml version="1.0" encoding="UTF-8" standalone="no"?>
<!-- Created with Inkscape (http://www.inkscape.org/) -->

<svg
   xmlns:dc="http://purl.org/dc/elements/1.1/"
   xmlns:cc="http://creativecommons.org/ns#"
   xmlns:rdf="http://www.w3.org/1999/02/22-rdf-syntax-ns#"
   xmlns:svg="http://www.w3.org/2000/svg"
   xmlns="http://www.w3.org/2000/svg"
   xmlns:sodipodi="http://sodipodi.sourceforge.net/DTD/sodipodi-0.dtd"
   xmlns:inkscape="http://www.inkscape.org/namespaces/inkscape"
   version="1.1"
   width="96"
   height="96"
   id="svg6517"
   inkscape:version="0.48.5 r10040"
   sodipodi:docname="icon.svg">
  <sodipodi:namedview
     pagecolor="#ffffff"
     bordercolor="#666666"
     borderopacity="1"
     objecttolerance="10"
     gridtolerance="10"
     guidetolerance="10"
     inkscape:pageopacity="0"
     inkscape:pageshadow="2"
     inkscape:window-width="1920"
     inkscape:window-height="980"
     id="namedview44"
     showgrid="false"
     inkscape:zoom="2.4583333"
     inkscape:cx="-22.983051"
     inkscape:cy="48"
     inkscape:window-x="0"
     inkscape:window-y="28"
     inkscape:window-maximized="1"
     inkscape:current-layer="svg6517" />
  <defs
     id="defs6519">
    <linearGradient
       id="Background">
      <stop
         id="stop4178"
         style="stop-color:#1b559d;stop-opacity:1"
         offset="0" />
      <stop
         id="stop4180"
         style="stop-color:#ed9537;stop-opacity:1"
         offset="1" />
    </linearGradient>
    <filter
       color-interpolation-filters="sRGB"
       id="filter1121">
      <feFlood
         id="feFlood1123"
         result="flood"
         flood-color="rgb(0,0,0)"
         flood-opacity="0.59999999999999998" />
      <feComposite
         in2="SourceGraphic"
         operator="out"
         in="flood"
         result="composite1"
         id="feComposite1125" />
      <feGaussianBlur
         id="feGaussianBlur1127"
         result="blur"
         stdDeviation="1"
         in="composite1" />
      <feOffset
         id="feOffset1129"
         result="offset"
         dy="2"
         dx="0" />
      <feComposite
         in2="SourceGraphic"
         operator="atop"
         in="offset"
         result="composite2"
         id="feComposite1131" />
    </filter>
    <filter
       color-interpolation-filters="sRGB"
       id="filter950">
      <feFlood
         id="feFlood952"
         result="flood"
         flood-color="rgb(0,0,0)"
         flood-opacity="0.25" />
      <feComposite
         in2="SourceGraphic"
         operator="in"
         in="flood"
         result="composite1"
         id="feComposite954" />
      <feGaussianBlur
         id="feGaussianBlur956"
         result="blur"
         stdDeviation="1"
         in="composite1" />
      <feOffset
         id="feOffset958"
         result="offset"
         dy="1"
         dx="0" />
      <feComposite
         in2="offset"
         operator="over"
         in="SourceGraphic"
         result="composite2"
         id="feComposite960" />
    </filter>
    <clipPath
       id="clipPath873">
      <g
         transform="matrix(0,-0.66666667,0.66604479,0,-258.25992,677.00001)"
         id="g875"
         style="fill:#ff00ff;fill-opacity:1;stroke:none;display:inline">
        <path
           d="m 46.702703,898.22775 50.594594,0 C 138.16216,898.22775 144,904.06497 144,944.92583 l 0,50.73846 c 0,40.86071 -5.83784,46.69791 -46.702703,46.69791 l -50.594594,0 C 5.8378378,1042.3622 0,1036.525 0,995.66429 l 0,-50.73846 c 0,-40.86086 5.8378378,-46.69808 46.702703,-46.69808 z"
           id="path877"
           style="fill:#ff00ff;fill-opacity:1;stroke:none;display:inline" />
      </g>
    </clipPath>
    <filter
       color-interpolation-filters="sRGB"
       id="filter891">
      <feGaussianBlur
         id="feGaussianBlur893"
         stdDeviation="0.71999962" />
    </filter>
  </defs>
  <metadata
     id="metadata6522">
    <rdf:RDF>
      <cc:Work
         rdf:about="">
        <dc:format>image/svg+xml</dc:format>
        <dc:type
           rdf:resource="http://purl.org/dc/dcmitype/StillImage" />
        <dc:title />
      </cc:Work>
    </rdf:RDF>
  </metadata>
  <path
     inkscape:connector-curvature="0"
     style="fill:#ffffff;fill-opacity:1;stroke:none;display:inline;filter:url(#filter1121)"
     id="path6455"
     d="M 0,64.86487 0,31.13514 C 0,3.8919 3.88785,10e-6 31.10302,10e-6 l 33.79408,0 C 92.11217,10e-6 96,3.8919 96,31.13514 l 0,33.72973 c 0,27.24325 -3.88783,31.13514 -31.1029,31.13514 l -33.79408,0 C 3.88785,96.00001 0,92.10812 0,64.86487 z" />
  <g
     style="fill-rule:evenodd"
     id="g6121"
     transform="matrix(0.006935,0,0,0.006935,16.10038,17.17484)">
    <rect
       style="fill:#f79c10;stroke:#084294;stroke-width:423.32998657"
       id="rect4552"
       y="239.88721"
       x="239.88713"
       ry="568"
       rx="871"
       height="8467"
       width="8661" />
    <path
       inkscape:connector-curvature="0"
       style="fill:#96989a"
       id="path4554"
       d="m 7720.8871,4828.8872 c 987,1774 -1392,1635 -2127,1496 -790,592 -1777,394 -2172,-197 -630,538 -2555.99997,615 -2173,-986 -789.99997,-395 -1184.99997,-1775 197,-2367 -463.99997,-1159 1132,-1799.99999 1976,-1183 395,-1380.99999 2114,-1047.99999 2521,81 988,-592 3015,309 1778,1183 1185,592 1185,1578 0,1973 l 0,0 z" />
    <path
       inkscape:connector-curvature="0"
       style="fill:#fefefe"
       id="polygon4556"
       transform="matrix(28.222222,0,0,28.222222,-2.4055355e-4,0)"
       d="m 244.40625,89.03125 -25.21875,3.0625 5.375,5.375 -18.9375,18.9375 -8.5625,8.59375 -0.90625,0.875 -5.375,-5.375 -3.34375,24.9375 25.21875,-3.03125 -5.40625,-5.4375 0.90625,-0.875 13.3125,-13.3125 13.3125,-13.3125 0.875,-0.90625 5.4375,5.40625 3.3125,-24.9375 z" />
    <path
       inkscape:connector-curvature="0"
       style="fill:#fefefe"
       id="polygon4560"
       transform="matrix(28.222222,0,0,28.222222,-2.4055355e-4,0)"
       d="m 161.84375,37.15625 -15.6875,20 7.65625,0 0,1.28125 0,37.625 0,1.28125 -7.65625,0 15.3125,19.96875 15.65625,-19.96875 -7.625,0 0,-1.28125 0,-37.625 0,-1.28125 7.625,0 -15.28125,-20 z" />
    <path
       inkscape:connector-curvature="0"
       style="fill:#fefefe"
       id="polygon4564"
       transform="matrix(28.222222,0,0,28.222222,-2.4055355e-4,0)"
       d="m 79.46875,88.75 3.0625,25.21875 5.375,-5.40625 0.90625,0.90625 26.625,26.625 0.875,0.875 -5.375,5.4375 24.9375,3.3125 -3.03125,-25.21875 -5.4375,5.375 L 126.53125,125 99.90625,98.40625 99,97.46875 104.40625,92.09375 79.46875,88.75 z" />
    <path
       inkscape:connector-curvature="0"
       style="fill:#fefefe"
       id="polygon4568"
       transform="matrix(28.222222,0,0,28.222222,-2.4055355e-4,0)"
       d="m 162.125,199.65625 -15.6875,20 7.65625,0 0,1.25 0,37.65625 0,1.25 -7.65625,0 15.3125,20 15.65625,-20 -7.625,0 0,-1.25 0,-37.65625 0,-1.25 7.625,0 -15.28125,-20 z" />
  </g>
  <g
     id="layer3"
     style="display:inline" />
  <g
     id="layer2"
     style="display:none">
    <g
       transform="translate(-340.00001,-581)"
       id="g4394"
       style="display:inline">
      <g
         id="g855">
        <g
           clip-path="url(#clipPath873)"
           id="g870"
           style="opacity:0.6;filter:url(#filter891)">
          <path
             d="m 264,552.36218 a 12,12 0 1 1 -24,0 12,12 0 1 1 24,0 z"
             transform="matrix(1.4999992,0,0,1.4999992,-29.999795,-237.54282)"
             id="path844"
             style="color:#000000;fill:#000000;fill-opacity:1;fill-rule:nonzero;stroke:none;stroke-width:4;marker:none;visibility:visible;display:inline;overflow:visible;enable-background:accumulate" />
        </g>
        <g
           id="g862">
          <path
             d="m 264,552.36218 a 12,12 0 1 1 -24,0 12,12 0 1 1 24,0 z"
             transform="matrix(1.4999992,0,0,1.4999992,-29.999795,-238.54282)"
             id="path4398"
             style="color:#000000;fill:#f5f5f5;fill-opacity:1;fill-rule:nonzero;stroke:none;stroke-width:4;marker:none;visibility:visible;display:inline;overflow:visible;enable-background:accumulate" />
          <path
             d="m 264,552.36218 a 12,12 0 1 1 -24,0 12,12 0 1 1 24,0 z"
             transform="matrix(1.25,0,0,1.25,33,-100.45273)"
             id="path4400"
             style="color:#000000;fill:#dd4814;fill-opacity:1;fill-rule:nonzero;stroke:none;stroke-width:4;marker:none;visibility:visible;display:inline;overflow:visible;enable-background:accumulate" />
          <path
             d="m 669.8173,595.77657 c -0.39132,0.22593 -3.62645,-1.90343 -4.07583,-1.95066 -0.44938,-0.0472 -4.05653,1.36297 -4.39232,1.06062 -0.3358,-0.30235 0.68963,-4.03715 0.59569,-4.47913 -0.0939,-0.44198 -2.5498,-3.43681 -2.36602,-3.8496 0.18379,-0.41279 4.05267,-0.59166 4.44398,-0.81759 0.39132,-0.22593 2.48067,-3.48704 2.93005,-3.4398 0.44938,0.0472 1.81505,3.67147 2.15084,3.97382 0.3358,0.30236 4.08294,1.2817 4.17689,1.72369 0.0939,0.44198 -2.9309,2.86076 -3.11469,3.27355 -0.18379,0.41279 0.0427,4.27917 -0.34859,4.5051 z"
             transform="matrix(1.511423,-0.16366377,0.16366377,1.511423,-755.37346,-191.93651)"
             id="path4459"
             style="color:#000000;fill:#f5f5f5;fill-opacity:1;fill-rule:nonzero;stroke:none;stroke-width:3;marker:none;visibility:visible;display:inline;overflow:visible;enable-background:accumulate" />
        </g>
      </g>
    </g>
  </g>
</svg>
